<mxfile host="Electron" agent="Mozilla/5.0 (Windows NT 10.0; Win64; x64) AppleWebKit/537.36 (KHTML, like Gecko) draw.io/24.7.17 Chrome/128.0.6613.36 Electron/32.0.1 Safari/537.36" version="24.7.17">
  <diagram name="PÃ¡gina-1" id="IX5bUW58BRTt1xBo7RV-">
    <mxGraphModel dx="880" dy="1632" grid="1" gridSize="10" guides="1" tooltips="1" connect="1" arrows="1" fold="1" page="1" pageScale="1" pageWidth="850" pageHeight="1100" math="0" shadow="0">
      <root>
        <mxCell id="0" />
        <mxCell id="1" parent="0" />
        <mxCell id="AJNaNlnTPfOoi5V9MQdz-5" value="" style="shape=image;verticalLabelPosition=bottom;labelBackgroundColor=default;verticalAlign=top;aspect=fixed;imageAspect=0;image=data:image/png,iVBORw0KGgoAAAANSUhEUgAAALsAAACECAYAAADIvFoSAAAAAXNSR0IArs4c6QAAAARnQU1BAACxjwv8YQUAAAAJcEhZcwAADsMAAA7DAcdvqGQAAAjeSURBVHhe7Z29jtpYFMfPjLbPvECqNMjOA1DkIcgKs9oiEsWkT5FipC2II62ElBTTZwqnxUihywukmCrVYNEkVR6AaB9g9pzrazAGM4bh4+Lz/0VX9vUXiPn5+GCfXM7uGQJAAed2CkDtgexADZAdqAGyAzVAdqAGyA7UANmBGiA7UANkB2qA7EANkB2oAbIDNUB2oAbIDtQA2YEaIDtQA2QHaoDsQA2QHagBsgM1QHagBsgO1ADZgRogO1ADZAdqgOxADZAdqAGyAzVAdqCGkx7F9/Xr13YOnAqfPn2yc4fn5GX/+PGj7QHXefv27VFlRxoD1ADZgRogO1BDfWSf9Knb7aatP6KJXQxARo1kn9CIDW+0GkSjLjW7I7sCgJSapTENarWuSHw3iPTNJjUvLqjZn3Dwb9LFBfd5GXeX+nJ1MNs2ufHJMl9/Yab5baR/YY+7er/cPsAJ6iW7pDIsWXfUoKurFhGLL9NWo0GT0YgjP5vH81dRRFd8QkwK/VG/P9uHO6mojRZFt7e8nk8W7ss2k1ZE02m6j7B6vyu6ncp+6Tbg+NRLdhYsmk5ZxFSyUVciK8tuQ30ruqXbK6I+R3LJcor9OS0+AXJXiMpsux84BDVLY5aZ9PkLK0d1QeQ3X145Wqep/WK/dcXmc2TucqTul+QfrVaLGpweXTS75juCWVZhP3B88AR1Yzid4e8GjcmIuiw8X0oo4uwFPMyxn6CevOwvXrywPeA63759g+zbkskuqQXYPU+ePLFzRL9//7Zz2zHiVBKyP4K87Pk/TBnyB6uyHVj+rOoge+2/oAKQAdmBGmonu1xui20zxjQec7M9UB9qHdnlkf2HDx9sbz3jMKTYTIeUyIK4Q50QyteJ2sr+5csXmk6Jfv361y7ZAN8nPxhQQENzAoD1vHnzxs65TW1lf/nyJX39SvT+/T92yXZ4dgpWk4l+CsLXOo35+fNPO7cJY0rimMJOh5J2j3y7FCxTFNx14Wst+yb4vR6nLTIdUC8IqDfgKUwvJS/29fW1nXNb+FrL/urVNf3339+2B/ZBJnpeeFepnezy1C9rT58+5e+aCM/7oii468IjjQFbUSa2y8JDdqAGyA7UgBJfUErdqh5R4gtWUvys6iA70hhQiR8/fmzdXAGyAzU4L/vZ2dmsrervjg0rHDcuA05Lh+eMKY7zx8iVFst01fE3fk332d/fcxmnc3b5APJvr9jfZc4+Djv0FwV01wtMuW9iywfKqLLNjDikDrWp5yU0DBNqD3rk87LQ681KEszx2m3y5CFYybEXXrOw/64pflbfv3+3c5vz7NmzhZw9L3bePlkcRZHt7Z4/7NRZsi9GMgzDfvGNjGFMrCWZYrBxwFrxNEliikWxcUx+4NM48ajHMTbmjZNxQh7L67F8Q6mRTGT/mELeoscmiosxL0vnpXSYJZXwnEiU5pmSJ7wJix2akkuPJedXvxvI3Pw1/XT/eMgngBdQm9spPCxOA5btrGCfd9aclz2LLhIRbm5uzPzeCFhalmxou3N8XsWyc1T27DaJXRZIhBV55eTwWThWMl2Xil6G7/F6butgp/kkYZGTJP0PJfY1zevb/QNuobzh4mXAUeTKXExZ8vLvM6g5f+tx8ZK3+EFdXl7uMI3JUoSYOs8lgvMyiZYclo2TvE7SC4+nEnV5rYn2fiGym3/JcDENGXMaw7uYCwVfFQZy4qxKY+w+Mp+ecBy7zXuI+TU4stttUtn5EJIa8WkgV56kvdsqzX2mMUWyv+m+VXRe9s+fPxuZV40m5fZ9dhaVTxSJyF5pilFlGzkv+EzJnzwH4JCyHwrcetwbkp9zmsOtPJd+YBv+jhBLVG8fVvS6ci7RMWvAMTiXWn+ygE04l4FB8fOKQANIY4AaIDtQw9l0OjV3Y449dnYZVe/GgN2DuzGOIn+Yh1rV7dAOdXv2sCCNAWqA7EANkH3GuFCCuyvS4556aa7k3ds2V4Dslmz03riTjub7WKS+BaMCuwVkz+P7pugrkSKtOKYwjFnWVNKQp7JMgv84W29PjHSbtL9SZz4uRgU+PpB9RjqgqQxm6onUSVpUm5Xr9tpyFvACmfC0HQQkxYuJsTstvc02WQdGBT4e53L/UxrgqC5FWSysTH3PI0+aXSv/YcPjuDxkuXkxDSWyc5g25b9rwajArmAeKrlww7+M0yrxrVayewoUPyvpPwY8VKodVcp6wbGA7EANkB2oAbIDNUB2sBVlPyeDn5k5AHK34KFWdTu0andeimK7LLpQG9mz0tR1rep2aNVvz2aCuy66gDQGbEX+52TyouNnZkAtKYrtsugCZJ+xrxLfNUjpr2m2vxX2GLZ3aDLBXRddgOyWXZf4ViUZ2hLgDXGphPgURBcge55Zia+MxCXjM8qoufPS3vz8rMx3VgZsS37t8s7zTirjinLhmZK2pkBG5A1ZXlmzdDxenz/GSlBCXAnIPmNe4tvmWCnDTEvBbpAr7c3PmyGtF8qA0xJf2S8t/+WOrFvajsU0vTwyXLZUUg6l5NL05XhZCXH+GA/FbpQQlwPZZ8xLfBM2zBdrJILnSnsXynxXlAELvkRnlnNoE/Gy7ZYIeC2H5bYZ1DEdh10CuVxp8sdYPlFQQlwZKfGNouj+8vJSBvR1Dnlv8h5XvT9Zlq2vQtXtdsHg3bv7gZ1f5O7+bjC4H3C7u7OLDIP7d4N0wd3G++6e4mcl/cc0FxyrRT07OA2O7djJyw5OC8i+hnWy15HiL42A3YEvqA4hoovgWcuLDx4PZAdqgOxADZDdIbLUJWvI2XcLZHcI5Oz7BbIDNUB2oAbI7hDI2fcLZHeMKIqkXsn8VD3YLWtlz0cZAE6dpXKBvNj5q6gslqhzDDSVC2grjzgkC7Lf3NwsCJ5HZJfL67GA7OCxrI3sQia/LD52HgnZwWN4sOoxkx93Bg4DZN8fD96NyZ7mAXDq4NYjUANkB2qA7EANkB2oAbIDNUB2oAbIDtQA2YEaIDtQA2QHaoDsQA2QHagBsgM1QHagBsgO1ADZgRKI/gc2DtY8gZ9eGgAAAABJRU5ErkJggg==;" vertex="1" parent="1">
          <mxGeometry x="310" y="-520" width="187" height="132" as="geometry" />
        </mxCell>
        <mxCell id="AJNaNlnTPfOoi5V9MQdz-6" value="" style="shape=image;verticalLabelPosition=bottom;labelBackgroundColor=default;verticalAlign=top;aspect=fixed;imageAspect=0;image=data:image/png,iVBORw0KGgoAAAANSUhEUgAAAXIAAAEiCAYAAADkqln+AAAAAXNSR0IArs4c6QAAAARnQU1BAACxjwv8YQUAAAAJcEhZcwAADsMAAA7DAcdvqGQAABnTSURBVHhe7d2/jhpp1sfx0+8NLDfgaJIS+AII9iLwqAtpAksVtPMOJkCaAGFpJCQ76Hwd4HAbJJP5BjboaKIFVbKOfAGsfAH7nvPwVLuo5m93AfVQ389smfoH9NrdP04/PJy6+p8SAECw/s/fAgACRZADQOAIcgAIHEEOAIEjyAEgcAQ5AASOIAeAwBHkABA4ghwAAkeQA0DgCHIACBxBDgCBI8gBIHAEOQAEjiAHgMAR5AAQOIIcAAJHkANA4AhyAAgcQQ4AgSPIASBwBDkABI4gB4DAEeQAEDiCHAACR5ADQOAIcgAIHEEOAIEjyAEgcAQ5AASOIAeAwBHkABA4ghwAAkeQA0DgCHIACBxBDgCBI8gBIHAEOQAEjiAHgMBd/U/59Up69+6dX0Mo/vGPf/g1AKcQRJB//PjRb6Hqfv/9d4IcODGGVgAgcAQ5AASOIAeAwAUY5KkMk0SSYeq3d0uniTSSqUyHbWm0h/oIq9I1+9fteyrVx9Svpd2WRB9//68IAMoTXpBPhzKcWigPZep37RJFPRn1OhL57bKkFuL6RXR6Pens8+DpUNqNZO+vGwD2EVyQTzXEo95IepGGuUtErdDbDWlbhe6Csi1DDdi2VsntxnK/VeRJkquudTt/3EmnWlk3pKH3t3B+5B5Tz7PnWDngpVqV60tEx14oiueuPM9Uf5Owr0GfhzAHUKLAgtzCW0MzirTKXoa61tvS0XI41fVUQzWNOq5C7mmw2nlu//LOP3XWHNf7jR4WMupo1C5fIRyr/LPz3W8DuQezF5RRTx8jWQ7DDIvn6m8CP58nlc6oZ1+tjBYj/RMAyhFWkGvAWuzauLQLVLdtGWzVsFbmum0hbsE6TDVAN4x3THccX68jPQ3i/F30KfX5RvLwoAGtFb1mtbc8V39VeMbzAMBhAgpyDeqhDas8aHDaYlWtVeh6yCrfjq1baPqz3fj15gGMJ8fToRtaSbTidxW1Zy8MVl0nWm0P8+W4cm+INhquGrcnHll4F85deR77TUK/ZoZWAJSJT3YexMbbdfFbUaS/CVBsr+CTncDpBRHkf//73/0Wqu5f//oXQQ6cWDBB3snGTFCqv/3tb35N5L///a9fex57k5ggB04vqCDPh84mFkb7nIenf1cEORCm8D4QBABYQZADQOCCDHIbAiguh5nJbKaL3wKAkAVfkds87g8fPvit7WaDgYzd7UTmtmPcle6AOAcQtqCD/MuXL7JYiHz//qffc4BWS1rxvcQyceGO7W5vb/0agKoJOsjfvHkjX7+KvH//h9/zPE1/i/WyECfMgWoKfmjl27df/dohZjIfj2XQ7cr8ui8tvxdPFcObMAeqJ/ggP0Sr35fY3d5LP46lf6+3pPhG+dC+u7vza4Q5UDXBB/nbt3fy48dvfgvHkIV4PswBVEeQQW6fRsyWV69eSatFWX0sxfAmzIHqqdXQCg6zKbQJc6BaCHIACBxBDgCBo41tzdH9EAgfbWxrrPh3RZADYWJoBY/+85//PHsBcD4EOQAErmZBTvtaAJenVkG+tX3teCB0tAUQovoNreTa1w7GYxlrgFuoz+Z+sUC3hloDmtsCCEOtx8ibWp+PXYk+l1ZTA14X64o4m7udDMEACELtxsjz7WtFK/CWNSP3iW0VeTOOdV9TmrrQwQVACJhHXmPFv6u//vrLrx3ul19+YR45cCa1HloBgEtAkANA4CoR5FdXV4/Lum2Ep/hvWNwGUJ6r0Wh01jHyJEkkP0xvP+j5bcbIj+dYY+SfPn3a+m9a3AbwMleLxeKsP1GNRoMgP5NTBrkWDI8dLIv/5gBe5urm5uasP1G7qjfa2B4XFTkQvkpMP7Qf7Ix9OfltfaGhIj+SY1XkNv1w278pIQ6UqxJvdtoPdras20Z4iv+GNrSyWCzcCzOAcjH9EAACV68gtxa2bvHry70AELTaVeTziW9la10Q3R4ACFu9glzD2zT1ZjYYyGBgfcnH0u12ZeDa2Y5pYwsgODUfI29J3I8l1oC/jvsSa60+oY0tgMDUrvvhWCvxZr8vWnLLRLezdbud6600rTt50/0Xx5c9+HLM6YdFnz9/dv+Gv//+e+W6I9r3GMJCh81VtLGtMYJ8yb7HPn786LdQdVX8Hjo3ph8CQOAIcgAIHEEOAIEjyPHIxrmfu1yOVKbDRJJ2W5JkqltA9RHkQE5qIT4V6fR60on8zm3SobQbiehdgLMJKshtlsWuZd/zWJZ/V1gj1apcIg3zjkQuqBvSbutiCT9NdL293DecyjAZWg0vCWGOMwoqyG2q3K5l3/NYmKK5TtQbyagXSZq0pdEeynA4tPJcehrqMtXtaLneifScaSqdUc8iX0aLkf4JnAdDK0COFuOa2yN5eNCATqeiWe11pKehLcO2DFMN8r3GXYDTIMiBnFSD2i5FZ9W4prWMLLy1Ek+0Mh8Ol6m+HEf3AylamUcMreDMahbkvo2tW82t5+3V3nbDfRG8zmjhLoBhy4MNm0Q9ebDthwdXpffccVu3fdmwiu1jaAXnU6uP6FvHw/n1tTStC6Kt961R1ip3TrbfOiE2+9L3LVeyY83sceZ6fN6X++yEwBT/rl76BmjIH9G37zGEYdP3WJ3VOsitaZY1ybI/ZoOxxP++15DuykBjvDWb63kzGWuQ3/vmWStB7sPemnDJmheEEBDkS/nvMZTvVN9jdVb7MXLNa7mOY+k/djpctra9ts1mS1rWvHwH91qAi2Chs2vZ9zyW3YUXylG/IC9cGaglM3chicls/Yj3bL5u/0zmdvGJblcr/D5XGgJwVrUK8lZuCMTW+265l3utyN1wi99v57jb2IZVNLY1tMe6iIb28ti9VvBaxd/rLSkO4MyYfjhbhnTTh/RTWsFraMe6+KxHDdhYbnE5DDObcDoEeYuQ3uT29tavrdq0/1LZvPIPHz74re3sDXG72uts4C/yPbbrwhLnOC6CHFsVQ7tuIf7lyxdZLES+f//T7zmAvR8T3+tvehMX7tiubt9bZSLIsVP2A1bHH7Q3b97I168i79//4fc8DzObtqvz91gZCHJsdHd359dWf8Dy++vg27df/dohmNm0r2J4E+aHCyrI170BVVz2PY9lvzfviqFdtxA/1M9ZT8xs2semAoEwP0xQQb7uAwfFZd/zWPb/sEb2A1bXEH/79k5+/PjNb+EY6v499lIMrWAvdfsBy7/gvXr1SlpMazqa4vcWYX44ghzA2WwKbcL8MPUL8md/SIMPeACoploF+XjQXc7n3ZbG1ro2d5wPeACouloFedxsyXiicdzSYLbAtulhg7HvpTJwAW1NstY3ylJ8wOPirZvdU1z2PY/lZS1rsb9g+pEjDKH3I99nNo8F1CGzfuqs+Hf10nCnH/l6QQQ5wkKQI1P8u/rrr7/82uF++eUXgnyDygf5pbq6upI6/dUT5PVEkJ8G0w/PYBniy1tcoGx2E7OccCIEOVCilZlR9ua4rQNHRpADJVqZGTWwqaxjF+5dTff8TCmgTAT5iWXDKrhQdnnAa5FJd+A+d2DX7p5L7C4ZaN0QZ3P3aQSGXFAqgvxMbHiccfLLY1X3WLN61lp2IB9bKa6rY03upl2JqtmUpi4MuaBMBDlQopZW5HbpwPt+rMW5VufWxla3Y01uO+bWbQMoEUF+YjblMCvCl1U54ywAXoYgP4PRaCSLxUJubm78HgB4PoIctWHvR2QLcEn4ZOcZVPlTjseS//98jt45SZKszBbKZ7n9ZsQnO4+DT3aeBkF+BnUO8nNpNBobp32+e0eQHwtBfhoE+RnUNcjtB/BcPn369BjkxZGVfEWO8hHkx0eQn0Edg7wKsrHx4rc8TbOOh4r8NHizE7VhAU7dgktEkANA4AhyoFQHdlGh1S1KQJADJbKOh699d8Pswt3bzCb+ot7ACxDkQKla0m/OJetU6zoe6q27wLe1s9UD3W5Xj9vFvu2kme4fy6C7DP2Vi4K786nYsRtBDpQt7ktzPpCJ3/yppYesgVZLrq25ltbic79P/ydzTex8q9vlMS5Ogd0IcuAI4n5Tq2uXzK7Cnlhv27V8Ra7luPUuz7e6XTbCBXZjHvkZMI+8WphHfjzMIz8NKnIACBxBDgCBI8gBIHAEOYCTsXHu5y7YjCAHgMAxa+UMmLVSLflZKyhfftaKzWJ5CWatrEeQnwFBXi1MPzye4t8VQX4cDK0AQOAIcgAIHEEOVAUtbfFMBDlQon1a1z5hHQ8twVs0yMLzEOTAkTy2pPUtal1gWztbDW3X1ta1stUqfO4XfRGw9rb5+yxb2S63qdaxCUEOHIl1o72Of7aotQaIth27snvutl2z2qZW4tb6UM0K98la317r4U39EwGCHCjVzPUUH89m0myKTKy6zlrU+m07NteUblmfWl9mW0VubF/+PsA+mEd+BswjrxbmkR8P88hPg4r8DJIkkUajIZ8+ffJ7AOD5CPITu7q6EvslKFtsG6ir29tbv7Zq036sR5ADOKtiaBPihyPIAZxdFt6E+PMQ5CeWDadkC+81o87u7u782mqI5/djN2atnFgxvAnz86ON7XHtM2tl3xBn1sp6BPmJEeTVw/TD4zlk+qGF+a5KnCBfj6EVAJXAcMrzVb4it2oJYQmtWqIiP55DKvJ9UJGvF0SQf/z40W+h6kL8tGq5QT6zbrTSarV0VdeP1dFw3WOvfb7l13OuzooE+WkwtAKUaDaYuOZW4+5ABpPl+r5mg9fy2vWzdRvy+vXmjoezNY+d35e1082+Hv2CXKdFXCaCHCibVr9ZwyvXQCtrV5trSWv7XLta6471KNb/JssAnog0rQNisa2t355YL9zc9urjFFg1Ht8/PjYuD0MrKFXIQysIA0MrT4UX5OlUhsOppLYe9aQnibSnHXl46EnkTtgtHbY33ycdSjKNpNfr7P14+CnUIEdYCPJVYQW5hmy7PRTpaIB3Ig3zSDppyUE+TaQxjA56PPxEa95qsM8nZCr+I44SBDVGPh0OJe2M5GHUczMMLMwdrdKTdkMajbYMrVS3wG80NPR1SabLKtsfb7sTPAvtRiJ6xloW+O4++ccGKi77kFm25EMdl+ky3uyMOjJ6eJBelEqqYWuB76r2Xsc2NMyHMo1Gslg8yEMvq7M1/DXkO6ORbP1gduGxAaBqggryKNIQnk4fK+PdwapVu1XvW8ZIUtIZQODCCvLeSHqdVIZuqKMh7eH6QZFOr+cq8UQr86Gmvm1H02Q51PI4PqKV9qgj6TBhyAQXJRtOyRbGyC8f0w8llXSqi9+Koo4ufgMH483O8yuGN2F++YIIcub4hoM5vudHkNdPMEFOr+jjoA/G5SHI6yeoIH95QyPk0dDocll4Zwjxy0evFeACjUY23XYhNzc3fg8uGUEOAIELMshtCKC4HMZ6NOvitwAgZMFX5Daf/MOHD35rO3o0A7hEQQf5ly9fZLEQ+f79T7/nAPRoPkj+KucAqiXoIH/z5o18/Sry/v0ffs/zNP0t1stCnDAHqin4oZVv3371a4eYuSu3DLpdmV/3z3Itw1AUw5swB6on+CA/RKvfl9jd3ks/jqV/r7ek+Eb50L67u/NrhDlQNcEH+du3d/Ljx29+C8eQhXg+zAFUR5BBbp9GzJZXr15Jq0VZfSzF8CbMgeqp1dAKDrMptAlzoFoIcgAIHEEOAIGjjW3N0f3wMn3+/Nn9zHChj3qgjW2NFf+uCPLLQZDXC0MrABA4ghwAAlfDIF+2sD2KfGtc2uQCOJF6BflsIAPf6vAoIWsdFf3qbOJb5QLAkdUqyMcTketYw9YH7mxswW7Ns3yfcl23gLfb8cB6leePFc7NHc9eFKzf+cCfNxlTjwM4jVqPkc+1ZL625lmxrj/J3ZbEeiA79vTc5fFrfUXIV94zf569YADAKdQqyONrWVbUVnFrGDebopWzVtVaYjctd+e2btW0RfNMq/Kfx56cu0FL7+ce41jj8ABQwDzyDWyYZO7b3m43k5kGv0V/sxnbMHkwmEd+uZhHXi+1HlrZpnV9veeVg+yScbHEutCEEcA5EOSb5GagAECVEeQAEDiCHAACR5ADQOBoY1tzzFq5TMxaqRemH9YY0w8v19XVlV8TqfiPOErA0ApwYSzEs+y223yo4zIR5Njo9vbWr63atB/AeRDk61gL2mIb2l3beduOrZM//9D7HlkxtAnxcCyrcYZW6qB2QT4evJbuYEdU2kc0C21oi21pN7Wpta6J1h1xaxpbh8T88dyHj6rY/jYLb0I8DBbcjKbUS82CfKwh+U+JZaI5O5OBdcDyt651rQashbz1WZnokXlun53nmmj5NrZmnrW2dY+zFDdbMp5oFGsyP7a+LT7+fLlkqtr+9u7uzq+thnh+P4Dzq1eQa1DOZlrxzmYymbWk35xreGpkN6011lxc08OVeji/b7WtrXH9y62/ra27P1Xcl/trLeg18K1bYnbc2mplj9XSsLclr6rtb4uhTYgD1VOr6YdjrXyb/b5GslXJIroq3ddz6f+7L/NBV+YarrNxU/qtuavIrWq3wF3u0/toLd/SxG3e96VpVbvrqtV0/8U+gK0K1zNcaMf6QmHr9p8+wePj38dz6cq13vr7uN8A9Nmse6KGf/P+fo+uiy93yPRDq8h3hXio0w/tewxhYYrrKuaRl0JD+OBWts+5T7kOCfJ9hBzkHz9+9FuoOj7k9BSzVkrxnFa2tL8FUA6CHAACR5ADQOAIciAvHUqSJMtlOJXU7WpLoz106y+SPfY0e6RUpkN7rn0eO5VhuyHt4dMzS/v6EKxg3uxEGIJ/s3OaSGMo0utFGpBDmUYjeYiG0p525OGhJ9HyrOdxj53qY3RkZI+lwd52Aazbi5H+uY0FeVumnQd50K8tz4K8lK8vELzZ+VQQQY6whB/kkQvFNGlIIrkg76VapWvdm+rSe9AjiVbIIlGU6q5Idz1IT5bh7BLVXgRGuXjOglzv3tFzO9O2JHo/merDWZA/BruKOtIbjR4fz+LfwjzS533oTFeeY1TWC00gCPKnKh/kl4gWo9XyJMiTaRabLpwtcJdB2ZF0OtUKeKrxqlW0Bmri90+1Wk57Cz23ocd60utoBZ1orW3hnqWrf5HoafBOo56eawmu99XzLMjFv3AsNPynuj6M9L6phr3bFz1W5LYv/xya+TJNCfI6Y4z8xJYtRv/3uNBitII0ZEeLhSwWuRBW00QDVAOz09knLq2i1rBec6p9JsKGbezFYJ+HiqJNJ21+DtQLQQ4cILU3J62S3qDT62niDyWxoF7zxqTT0WpawzfSQM9nsN03sqq9oZW5vmDYOL2Fvpbi0mgnWnX/PG/nc6BWGFo5sawizxS3cXorQyulSiXV9M2iNoo0uKmeX4yhlacI8jNgjLxaLMiZGRUOLif4FEF+YlTk1ZMFuRvGQOno53N8BPmJEeTVkw/y6jZmCxON2U6DNzsBIHAE+YlZ9W1VeLZQjQN4KYL8DEajkSwWC7m5ufF7UDU2BFBcDjOTJxfwBo6EIAd2sHndHz588Fvb2dWe3JVgB/4i2uPu7ot9Ay9EkANbfPnyRX97Evn+/U+/5wAtu3iIXbZv8njBbmyWv8A3DkOQA1u8efNGvn4Vef/+D7/nedzlXbFRFuKE+fMQ5MAO37796tcOMZP5eCyDblfm13bBb2xSDG/C/HAEOVCiVr8vsbu9l34cS/9eb0nxjfKhfXd359cI80MR5MAOb9/eyY8fv/ktHEMW4vkwx/4IcmAN+zRitrx69UpaLcrqYymGN2F+OIIcwNlsCm3C/DAEOQAEjiBHbeRbIwCX5Go0GtHsAxcvSRLJt7XJZ7m1SqCN7fHQ/fD4rhaLBUGOi2cfs9/Un+zdu59Bng+dTSyM9jkPtLE9lSutRghyXLxPnz49BnlxZCVfkRPk5SLIT4MLS5zB58+fXWhw7cHTysbGi9/yXFjieAjy0+DNTtSGBfjx65YXtK/ddj9a4mILghwo0Yva11q3RL/6aDwQ9zDrjgEeQQ6ULde+dmBBbM2zBmPN5K5b1+J6GdC6Ptb1me630B8PdJ9bt2Zbvq/5XCtxW+xY9ljZsdy5VOv1RpADx2TBPXc1ujSvtaa2Vb0Z6+11HEvsyuyWxP2Wb3Vr67Ho/0TzW1pNfVHQxcz8fbJj2bnZw6K+CHKgVKvtay14W82mNHWRud5qLT3RELbNiavIi7W0VeZ6fy25fX67ity0/H3yxwDDrJUzYNZKtVRp1ooNocx9K9xLwKyV06AiByqkdX3N1YRwMIIcqBJmp+AZCHIACBxBDgCBI8gBIHDMWjkDZq1US37WCsrHrJXjI8jPgCCvFppmHQ/TD0+DoRUACBxBDuBsbm9v/dqqTfuxHkEOlG52WCvb/Lk1bFdbDG1C/HAEOVCmmXUozNb3i+TZxLe+NTX9QFAW3oT48xDkQInGE+tQqGFsaax/PLaotQZZ44Fbz7efXWa+b5Rl2wNdci1uL93d3Z1fWw3x/H7sRpADRzGXiSvNsxa1c9e6dtlwdrVVbbadtaNdbXF7+YqhTYgfjiAHShRfy7Ky1jTOF9RzTWxrQ7vc+bRVbV7WrvZpi9vLlYU3If48zCM/A+aRV8up55FfWqvabZhHfhpU5MCJ0aoWZSPIgVOjVS1KRpADQOAIcgAIHG92ngFvdlZL9mYnwsCbnU8R5GdAkFeLBTnCws/NKoL8DAhynMLV1ZXw410PjJEDF2gZ4stbXD6CHAACR5ADQOAIcuDCZMMqqA+CHLhQNjzOOHk9EOQAEDiCHLgwNuUwK8KXVTnjLJeOIAcu0Gg0ksViITc3N34PLhlBDgCBI8gBIHAEOQAEjiAHgKCJ/D9MVzAwSSTpOAAAAABJRU5ErkJggg==;" vertex="1" parent="1">
          <mxGeometry x="510" y="-510" width="370" height="290" as="geometry" />
        </mxCell>
        <mxCell id="AJNaNlnTPfOoi5V9MQdz-7" value="" style="shape=image;verticalLabelPosition=bottom;labelBackgroundColor=default;verticalAlign=top;aspect=fixed;imageAspect=0;image=data:image/png,iVBORw0KGgoAAAANSUhEUgAAAfgAAAGgCAYAAABG9XXlAAAAAXNSR0IArs4c6QAAAARnQU1BAACxjwv8YQUAAAAJcEhZcwAADsMAAA7DAcdvqGQAAC4ESURBVHhe7d29juNWtvbxVecGXDfQkzjRkXwBhYEvQn0g6mCAMaw5qI7dQQcCHOjVwAcQ0B10MlF3oA6PKKCV+QYcVOTIIpR4ormA8vgC/K61SUoUi/r+KHLz/7PZIimKUqspPtybEtfNH0qAivv06ZO022158+aNfPjwIZkLAPVFwMMLBDyAOnr16lUy9hQBDy8Q8ADqyAL+3bt3ydS6/0huAQCARwh4AAA8RMADAOAhAh4AAG8sZNTrSW+0IOABAPDGbCSj2UxvRgQ8AAC+mGm4N/pj6TdmBDwAAH7QlvusIe1GQ/R/Ah4AAC9Y17wsZDbqyWhBwAMA4IGFjEbWPf8gDw82jAl4AACqryH9h0d56DeS6TYBDwBAldkX64oGAh4AgIqzWhz5gYAHAMADX3zxxdpAwAMA4CECHgAADxHwAAB45LfffnMDAQ8AgIcIeAAAPETAAwDgIQIeAAAPEfAAAHiIgAcAwEMEPAAAHuFKdgAAeIyABwDAQwQ8AAAeIuABAPBAeolaLlULAIBHsqVi+ZIdAACeIuABAPAQAQ8AgIcIeAAAPETAAwDgIQIeAAAPEfAAAHiIgAcAwEMEPAAAHiLgAQDwEAEPAICHCHgAADxEwAMA4CECHgAAD1AuFgAAD1EuFgCAGiDgAQDwEAEPAICHbv5QyThQWZ8+fZJ2uy1v3ryRDx8+JHOr59WrV8kYqqLK2xuqz/YZX3/9tdv/2Xn3LAIeXvAp4N+9e5dMoeyqvr2h+rYFPF30AAB4qFIteLovq+darRta8HgOtODx3LzpomfnVy3X3PkR8HgOBDyu5ebmJhkTycY2AY9nQcAf7uk2vpBRbySLRl/G/UY8Z9aTu1lbHsZtiefgufga8PZ5Qnn0ej0N9WRCZbJe7u/vCXhcHwF/uCfbuIb5bW+mI20ZP471T7VYyEyjvX1qui9Gcne3kH66XhzM54C3zxPK4fb2di3gs169IuDxDAj4w+W38VnvVkYNDWAN+kX/UbTRrrl851rw4/ZMeqOFLqVhr/NnehzQaCw0/3V6/CDjhgW4tv5tRY229Me2Hn2se0xW5uABB/E94O3vh+f38ePHZcBnW+/Gzxa8tj7inZvSnVdbdNp2ev2Fuy3qvkx3jA8P/d1dm7n19/vl6w4te1ctAX+49YDXAL8dSUODuaHB3JOxPOq/9VrAJ9uzZLbthR4U2LJj/TN9THygoKGvc5afAVrwJ6tDwPv496ui9Bx8PrJtn2EBX6S6P5OzbkrN34ZuhO1GYxlwDXeu8oDAs53cbU93pTmZ9Vs36Z3rJi2Xg/+uqBZtks+0/T0b9cQda7ppAHVkwb6pPf7TTz8VDhX/HbwGu4V75mSktWp79qUkF9y3cnt7585fLLslF9rquYvnjzTE3ReYXEupIOR1/W1dt63dnic+GNB16eMt8K0lZeuxabu1Y4B4XrL+WfoadLhLdtIFr2vtMbozv7vTda7dl3mOXnyfnZdN/66z3DKbngdVotvmaCaN/oO2tm2wVrYG/LaE139z27Z7s4brcWr3tZWu24j9+/cW1guVOxR0B8abtn0AVWA9LJuGage87tBGPQu5p7un2UiDuz2Wx8exrO3XGm0Z6w6zn5yr7I+tu37DOUgXkhqYEn+D2dape02389SJOEjd+uzcqB4mpHtfbVk/PD7ozjV9DXp/w3bO1hrb9Lrix/R1p+x2zrrzXej6XCy757DXp1Nt3dm7E7H6+t0DE2t/ry1/f1SEbpu6XT0s//FsG43PwVvoPz70dVOMb5f/vNajo495tO3IZrptyqZ1cNvP6rHxY+J12jbyZNsHUHnVPQdvLZNRIz6XqJP585L9hgawO//YkJG2iGcajKvzj9oW0nnuS0vui0gF5yGX69fHawtH94TSnt26sO+nPQbWYsqd93yw9eXmZc+B9hfpudSi1xU/Jj5XautpZM6zrl6HLW+vLb1vtczq72WvNf88q7C4Ds7BH27b+TSUj3WDVnl724Rz8H7wNuAf7Mt21o1t3ZDWpNWWS2HA2/Kui9JaM5mQz67fxi1bLWTtW8mua1MPIuyx2ox3vffWG6AtaPctZfcc+jjrAch8i9m1wnVdrnu/8HUlBwUa7O7b0NZzsAzvwwLerTP3PAR8+aUBb38XlFP6TWXb5gh4lJnHP5OzgLRw0/C7S4Jx6z5Tl5+tur0bGsgW3NukBxXpQcZ+Dn1dx7rW82xGwB8uG/D5n7wU+e233/ZaDueRfb8JeJRd5QKe7svquObOj4DHNRDwqJJKBrxteDi/bFDYjuwU9oVDAv5wBHy5EfCoksp+i94+ZLuGfZdjICDKzEIlPxxmLvO5DskUgHqgHjxQIfab9rdv3yZT282HQwnd7VQimxF2pTsk5oG6IOCBivj8+bM8Por861//m8w5QKslrWAigUxd6APwX+UDnu5L1MXLly/lxx9F/v7375M5x2kmtwD85lULnu5L+O6f//yvZOwQc4nCUIbdrkSdgbSSuQD85k3A0315Pa9fv07GUGatwUC3abudyCAIZDDRW9IdqA1vAp7uy+tIw52Qfx7ffPNefv/9L8kUAGzmVRc93ZeXlQ91Qv46sj9nfPHihbRabKUAdvMq4A9B9+VhsmH+/v37ZIyQB4Cy8irg6b68vDTcsyEPACifygc83ZfXkw91Qh4Ayqu2XfQ4zKYwJ+Qvp+gaD/lh3+UYzjMAVULAAyWV7Z3aNOy7HMN5BqBKCHgAADxU2YAv6j7LD/sux0DXIwD4prIBX9R9lh/2XY6Brkc/celloM7ookehX3/99egB5WD1Fr4axhdfTmsvAKgPAh7wVksGzUiSjHdXbAzDoSuqNB9acaVQut2u3m/zQpnr7dCu6pg+AECl1TjgD+m+vFZJWUrX4syCgTSjoUzdRCShK51of7T0rkCCVks6ukyg86Ya7vPILcA2CHigtgF/SPflySVlrWW0x8O2Ps+e6wDygkFTW+d64BjNpWXVlDZsR80g0Pub0tSBy0UB1VfjFny++zLtntRbmzmPuzKXwZopKWtdmmlXZtrVOewm9eWfdIPOtdUU71ztPluVWya9L7MuZ+15MutariO3PLBBWm9BI14mv0xk4uouDGQy0SBP7gv01sLcbgO9z+oyBAHxDvig3ufgM92XLnxd96S2YLQdPYy0FWMHADrryf5uuax1dsZdnfq/aP66OevdoDo0NbR1WBfft76udfY60nXZ422w86h0owIAdqn9l+zS7stWpnsy6Og8zdCBButcOhq06yVlO5ll7b7QWvDaoLYMjzTli7pBrfWtK3Gt72mc2k62WzT/PHbEkF2XrYNuVADAPm7+UMl46b169Uq+/vprabfbe/122y7gcunfeNv5+2jZFVpd+ffq559/TsYO9+WXX8psNpOffvpJPnz4kMy9rE+fPrnt4s2bN1d7zkso4zaOlez7bdvcNbfxa/Ll81R3tW/Bn6rVsRY+AADlQsCfyr4Ul4wCAFAWBDxQUtYdvGvYdzmG8wxAlRDwQEnZud5dw77LMZxnAKqEgAcAwEOVDfii7rP8sO9yDHQ9AoBvKhvwRd1n+WHf5RjoevTX3NU3iEd1PB7bIX7MfssCKCu66AFfze2yxsmo/WG/+LBLHW9I7rQmw8m1FwCUAgEPeCqcinQCDfXkp5wW4MNIW+Z2RUUdtzb6xpoGmZoIVD0AqqnGAX9Iy+RKXZb2HG5IxuO5z8KuRnfsgPJqupoGgQyaIlM7AtDxXbiQE1BNtb1UrVV6+29tn/wyCFzLZtvlZt39dsW6yFpAA5lYkZhDWLdocyA7H6ahHk6t2aWv5cpXz8m/V6d+8Y5L1R7nrJeqdRURRYJAI1qDvDnV7VhHQ+nIJIhk2I2kM4mrycWLx5+Dpn42phb8obbdrQLdlbfFMsu+31yqth7sM1lVNQ74eGcXyUA6VlHONVNshp19bMqgE0l3qjvC5lS6up8LdEdoBwBh8rh4Wc1i3V0O9Z7WPJKmLtPUnWKk/4VRR9eswa5/BvpnaAFvDwjiHWcUhfpIvU/Xr4906xrowYatv6k7WdHbqfUc2LPOQ2lp4s/1ia3E7TSz/LkQ8OVwvWvRW+Ej3Z7c5mVbrG7RGuotwnwrAr5+7DP57t27ZKpa6n0OvmTlYp92ycfrDnSv29HXGug6p1uXB/Yz13C38/O2jVklxcCqFBLugFdq/yW7MpWL3Wf/SrlYnIP1CLH9AH6jXOyJdp2/rwq66MuhjNs4Vuiirx+66GuMcrEAUCOLmYx6PenZMFroZE9uezNZJHeXCQF/quQ3xgAAzy1GcnfXk5k0XA9HoyE69GXc13G779buKw8CHigp6w7eNey7HMN5Bk6H+Ovm5mY5bDIbjWTRHsvDuO8Cvt9uuBa8a8339D6N997tnR4E3Mqdtu71EW7ajT4DzsHDyb9XNn0KzsEfJ93Gv/3222QOysqXc/D29yiSfp5se/SdBXQ2CbMZf39/vzwHP+vdSk/G8jhuu2mzGGmgz9oa+rqeu4X0H8fStm77UUMe+gsNer196Gub//oIeDgEfDkQ8NXhU8DbZyfLPr/p56mqXzA7xO3t7VrAZ716tQp4F+Ya2H1N874m9sI10gsC3rXctUXfWEij/yiZ44GrqmzA4/y2Bfzr16/l/fv3ydTKpvkE/HEI+OrwLeDts5NK97PZeT77+PHjMuDzPfTZFrxGuvuC3WiW9Llbd31jFAf8Q0NG7hx8W8Ya8prw0tP5Nv5ciUULHs6uFrwFucmGedG8FAF/HAK+OnwM+PTv4svn6RDpufd8JNpn8phejKLu/Gsj4OHsG/DGAj0/nUfAH4eArw4Cvh7Sz2QVEfBwdgW8yYZ6qijcDQF/HAK+Ogj4esjmTtXU+GdySWlWN5oZz9pZsjV+3FE2PafZ+bx5W9Z1Rvkw3xTuAOAjawTtGvZd7hpDbQN+PrQqbsn4VMcLLljj5ifjruRrNkHnOh0mo/HNQWzd0+z6Tfoce148xy6Tay9h+XcJu9Jde5Hnl4Y64Q4A5caFbhKRhuXQAjYMpftV1wWnRbcrJNPVII20hRyXi3NCK9tuBTuSMLZqdKE+3gLWas13k8fNk3WG+tB0fJgeGSgrYrN8XPIcFtzpa3HPrcutrTN+6Dp7HcFEApkmr/1yCHcAKD8CPsMqyFmluMGyPmxcrrVjk4UlX7PyZWLjx1m5WVunrdLCfFVmNrV6nK0/fY7Va9F7XKKv1rl6bDGujQ8Al2PfUcoPh9GG3BVOq9Y74HNd4S19u105V33ji2Rb8EFHw9ta19YC19mbysTaPKvhHuo6s6Ve0xC2dWYflz5H+jhr7G89rnDWy9nuXBzAWeUvc5qfhr/sIjlv375Npra79mlVvkVfINR/BCksAatHXNrctn+YZlPD+lmS9DKvIf9eHX5Euo5v0R+Hb9FXR/ot+vgiKavdqIV6fno8HidT5cS36Dcryp10//j582d5+fJv8t13ov/G8b/5ttxJy4s3k1vLmM15czoCPmuuLW1NzucL7+dDwJdDuo2jGvYN+MfHx2SqvAj4YtsC3vz44638+c/fy5/+9IObPibgmzp+icipZMCjGgj4w9k2jmrZJ+DtcqdVQMA/tSvg//GP/5G//vU/Dwz4rky1ISlhqK33iQwu1KCsXMCjWgh4+CYf4Mbmpey+/HTV8HlaOWfAX1ulAj5V9Q8Pzo8dEq4hDne79Xvfw+dpZVfA//vf/3aD/WTalCngK/ct+vToOR2yYQ8AwKVZgKfDixcvluFeNvwOHgAADxHwALCHtHseqIrKBXzaLZ8OPp8HA1A+dlbQdjucHkTZcQ4eAIA92Bfodg37LneNgS56ANhD3KCIx+NWPL2HdZP9ct2mYd/lrjEQ8ACwJ7vkrF2VrioXrkG9cQ4eAAAPVbIFz1E0AKCa4lKxl7MqRUsXPQAA1zAfuhLgbjS+2U+oj9vxgKJStAQ8AABXEE5FOkHLXfnOrn03t+AOQxl2k3DWcctxuw2HVis+uS/SFrkNybyuhrm10Yfp0UKerT+YEPAAADyHSJvanSCQQaDjT1roLQn0jo4dCTQ1sHVI502aIlM7WrCKdFsQ8AAAXEHQkbhFbi10DfSmC2ptpWtD3OV3ZOOhznOd7GusBb8U6AP1MZ3CfJ/raqzl33XfSq+c8Xj8x+Pj4x/39/fJHNQd2wSuoS7bGZ+nFXsP0vdjH/sud5rJH/9v8ove/vLHL5PJHxMdfrHJHFrwAABUyDxsunP51mXfCgIJdCgqaEfAAwBQIS37ol4yvg0BDwCAhwh4AAA8RMADAOAhAh4AgD0UlWTND/sud42BgAcAYA9FJVnzw77LXWMg4AEA8BABDwCAhwh4AACuYkdJuDMj4AEAuAIr6fpVUgEuLe96SQQ8AABX0ZJBM1rWhLeiMGE4lO4wUwq229X7bV64KiebPuBABDwAANcSDKQZDWXqJiKJC8fZH3Ep2KDVko4uE+g8qzQ3t5qy6pjOfQIeAIArCgZNbZ1rqz2aS6upMzakd9OKyDSb0tRhn2vP5xHwAABcQWtgLXMTyOSXiUwGExloa30y0SBP7gv01sLcbgO9b+CqxR0T7wQ8AABeIuABAPAQAQ8AgIcIeAAAPETAAwDgIQIeAIA9FJVkzQ/7LneNgYAHAGCHonKsZR8IeAAAPETAAwDgIQIeAAAPEfAAAHiIgAcAwEMEPAAAHiLgAQDwEAEPAICHCHgAADxEwAMA4CECHgAADxHwAAB4qJIB/+2338qbN2/kw4cPyRwAAJBVyYC/ubmRjx8/ulsAAPDUzR8qGa8EC3V7xZbtq9tK/RVwAZ8+fZJ2u03PDi6qLtsZn6eVV69eyddff51MVQsBDy+wQ8I1EPD1YwFfVZUN+HiccEeMHRKugYBHlVTuHLwFugU7AADYjJ/JAQDgIQIeAAAPPfs5+Cp/gaGuynhOjnOGuAbOwaNKShHw7969S6ZQdmX9wLNDwjWk29lsNkvmVN9PP/305DPD58kPBDwOQsCjztLtzCdFnxk+T34g4HEQAh515tMpRbt4y6bPDJ8nPxDwOAgBD/hh22eGz5MfyvUt+sVIer1ePIxmMhvdye3dSGazntz2ZrJIFstaJMsU3VdoMZPR8jn2ftRW6WtIX++2tS62/F0AADiXkgX8QmaafA09cmw3GtJIZjcafRn328vpnfRA4e62J0++BmPz72x+wx2d6lNcR+b1HPx3AQDgCCX8HbwGu4V7exWB1urt9bRl7ILyVm5vtaWst3dpC1xb5b27eP5IDxJGtqzGaS8X8rORzm+P5WHcdwHft+fQdd/d3bn12vpca1zXc7dcnz7QehaSafecyeuwZe60Nf7E2jqtx2D1ekZP/i466EFHvNqC58ZerEfG3kurMggAKGPAa/DFXehPgzMN6MfHsfSzTeBGW8YPDzpPA3rRkL4GuLbRZazL7fy+a7svfW1RW4/BYpZ0na+tL37eWcOe90Ee9IltOn2cTjwN4rV1LqRd8HpWf5dHGTdmMrOuC5N7buyWrU9gt5QRBoAyBrx1YWvAPYzP/1MU6xnQJF0GsgvvnrWUNYwzPQb7a7uDifxDT1snAACnK2EX/WbuvLl9Sc3Oo29r3VoXf0EXfaOvLf/2QkauCzzuPjeLUU96Wy5c0e5rC9x1u8fd+DZtLfeetsJHG/rR19ZZ8HrSddrr6OnBQH+tSwLHiFvvVBgEAFOxn8kt9D8NS3fOvScyfpTtDX1dXo8E0ghuNK74xTpPlfVnM2k3PQEP7IefyfmvFAFvF1xANRRd1rIMCHjgMAS8/0oT8LYxoZy++OILd2sfegIe8AMB779SBXwaJNv89ttvey2H88i+32UNeNuGUC2ExvMj4P1HwGOrqgQ8lzuujjQ0sj9ntN1QfhqXRcD7j4DHVgQ8zs1Cwy5IlN31xKdY1qfH43EyhUtJQ7zoe1AEfPWVMuAtVPKy9+0O+LnM53rTakkrnoEjEfA4t30D3i4ChcuxmvZpiG/6/BDw1Vb6gLffiX///ffyww8/uOltAT8fDiUaDKRpt52ONKOhDKOBTAbE/LEIeJzbvgF/f3+fTOES0v2u/XtsQ8BXV6kD/vPnz/Ly5d/ku+9ExuP4Ze4d8Hob6LxQxyUZx+EqF/BWNyC9+FCjLW3R6Vlbxv2Fu7UrJOYvhWA1AO7svge7pDAuLW0VWoinbDeUn8ZlcZ7df6W+kt3Lly/lxx9F/v7375M5x2kmt6iBS1ckxNlYiKdD0TSA05T+UrX//Od/JWOHmEsUhjLsdiXqDDgPXzsa7BbuF6hICABVUalr0e/SSrriW4OJDIJABhO9Jd3r59oVCQGghEof8N98815+//0vyRSwhwtWJASAqihlwNuXutLhxYsX0mrRDMd52JeKTqlICABV4VUXPSDW/Z75Nnyj/+Cm28lto62t+8dHeXRd8JbjGuTpffpf/yGtUGjd87ocXfQAKoor2WGrqvxMzrYhVEMZt6E64mdy/iPgsVWVAt62IZxf9vNm28Mp7OppBHw5EPD+K1XAo5yqFPAcJJ5X/r0i4P1BwPuvVOfgbUeya9h3OYbzDACAauJLdgAAeIiAh5esKzk/HMYqEuqQTAFA1XgW8PFOGciyS9K+ffs2mdrOChaF7nYqkc0Iu9Idsk0BqB6vAj7dKYfdeCcNWEVCKyv+r3/9bzLnAK2WtIKJBDJle9rD69evkzEAZeB1F/08HMrQis4MQx0PJdRpa42Fw66bb4395TLJQcFc7+vq8jZNu636qEh4HWm4E/JAeXgY8JFEraYrOmMV5eaR62i1uRK60UiCTstutIWmN3rbscI0+oDIJXpLAp1IF0H1UZHwsvKhTsgD5eBfwLc0rJuRtsq11aXB3Wo2pamDpbfmvu23NfR1nrbXpzpud01tR27LsxevPSoSHiYb5u/fv0/GCHmgDLwK+HTnrE1w1yJvudtAgsBa5bbDHshkoqFv82xad9zpMoNJumNfv0Wxm5ub5VA0fQnHPgcVCS8vDfdsyAN4Xl6fg8dlWMDaBRDToWjarpJ1rmH1nLIcbDodimQv1kNFwsvKhzohD5QD16LHVtn328LWLjP68eNHF+SpOHzXpx/tq+tnYpfSjJ8zmZHz6tU929CF5N+rw68nsI5L1ZaHfZ65VK3fCHhsdWzA39/fJ1Ons51P/BzxtI6usediG7oMAt5fBLz/CHhsVRTwaeCmbBPKT19C+hz59bMNXQ4B7y8C3n+cg8dRLGTToWj6EvZZvwXQrmHf5RhOC3MAz4tysdipqAVfJrTgLyf/Xp0a+rTgy4MWvP/oosdW2febgK+f/Hv1888/J2OH+/LLLwn4EiHg/UcXPQAAHiLggTVHViRMS8vuW2LWlnNDMh7PBYCz8SzgD9lNJjvYZOpyrvU8OIe0IuGhxYbm06S8rFWgc3N2i454DADsy6uAt1reX9lF5ZPxbSU+T673bVXo9njY1ufZcx24prlE0VTmVrggX2lQx9OKhHHVwbmbtmWmYfwPadvdMFORML2/+1V3fXtMrqxn9Q+yj+l2rdKhPYdVQEyeP9mmAeAQnrXgW8tCMyZa7iBtB6oz5/HOeRmsmXrftlNNd6bZkrEbd+yRjtug99mq3DK5nf5yx7z2PJl1LdeRWx7PqCVNq0+gh2X/rf8c65UGVxUJbbnAihnoqC3TCbJt8FVFQls+Xkf2/iLxYwLdVjr6/IGu2IogpdUQ48MHANiff+fgdefYjIYapXHoxjtIqx6nwR81pWUHADrryf42szONkp3tth17oE2v1pPyc/F96+taZ68jXZc93oZsWVt25M/NysTq9qP/EPbvn600GOnGkFYkTDV1wg7Opu5k+lOtHfdvk62GuOvwAADyvPqZnHV1Rq4KnHWJhtJydT4t3JsayJF0NfUndht1tIWmO/Gm7sF15yuDiXTcQUG8rB0gDHUtrXkkzcnATshKpHv4ediUQSuKn8Na4aLrsWV1PS1NbZf3el/TAiKzruzzNKerdU0CfS22Dl06Xd4q35UJP5M7j1C3TRl0dNvQ7Uenm7bNVCC1+Zmcv/iZnP/4HXyB1YECCPgTzUPXY1OVQM8j4P1FwPuPn8kVaHW0pZWMAydpBRJYV3sFwx1AtRHwRexLcckoAPio1+vJ7e2tqw4JPxHwAFAzcfnlVYGobDVI+IOABwDAQ3zJDltV7Ut2OD++ZOeftAWfyk/DD5SLxU5VCngOEs+Lb9H7K9stT7j7iRY8tqpaC55t6LwIeD/Rgq8HzsEDAOAhAh5YM19V/7PbokqARfOWNjwGAK7Msy5627nqjf2OPd3J5n/TbvN3/s49s554Rm3VrYveXcXQLnSk//ay4YqGa1c6tEJBzYG4qyKr5ePtEsbRQCbpHSa3bBXQRe8f+7ygWo79vHgV8GfZOet9zW076Zqpe8Bb0aL4soZNvS+U4JeJbh/dVa2C1lxC3YYmSQ2B7PZl15+PrFiMKzAU1z9w21tSe8AuSj+wijYlRsD7xz4v7969S6ZQdqdcStjrLvpId7BpGdhVPW7dIaelYJNyrYWs9Z6UeI0fh7rSHM+VfI2rDVo5WKsw9LSq4ArVAwE8F+/PwZ+yc05xXfqayZ2a2VXydf0g0crN2gFkV6LOQHN9vcSsLUsZWADX4F/An7RzTq3vpNkJ10crc1rHxgdumMhEQ9l12yfzbRl3G1j3vG4xur2EOkhnogeTekA50VtdPNDHDmwZW8gtq9un3toyZSsNDMAvXgX86Tvn9L71nTRqzkq+6vbRTLaPpyy0qRqHClqMXNEZN4xmMhvdye3dSGazntz2ZrJIFstaJMsU3feEW7+uL52c6fRor0euOeg5seT/z+TYOeNUlHyFrxYLmWlqNtptaTca0khmNxp9Gffby+mdNMjvbnvLIF+y9Vuo68FCPK0HEToP1+F/wLNzBoAtNNgt3NurOF9oC95a3gsX3Ldye6staL29S1vfGtS9u3j+SAN7ZMtqvPeKQr6hBw8LXV/mDtcidzP0sboeG3XzdH13yXp7PR23584cHKTPGT80fm22/J3OiB+fvqb4IXXnf8ADADbToBy5bvpMAidmIw3u9lgeH8fSzzbnNbTHDw86b6EHAQ3pj/t6mKDzdLmnVUXi+xf6HE+fIcet19ahCd1+kIexrk0PIFxeu/seZdy2XgE7nTDSZfrS7+syM/072EKNvjw82uuyB4CAB4A6s+54DWsXppfiuvy1tf6kaW0HCMno0druACLTAYEEAQ+v2IVZdg37LscQv1eoL7t4VMO+cHenre9tQezO32/ook80+hrC6bguL7reO/vi3L7BbF/Yc935Dddqb+v6rOXe05b80wMHGMrFYqvsVcyoJlc/+feKK9lV32FXsrPucQ1vd/67JzK2LvLkrkK6vB4JpHHbaOgBAi3rk5xyJbvSBPy3336bzEFZEfD1Q8D7J/28oBpO+bwQ8NgbAV8/BLx/sp8XnF/282Kfn1Oc+nnhHDzwhFUTTKoRAh6zMNo17LscQ/kaDQQ8kDW34kTpeC7irXARqQ+gIgh4ICOcWnGiVnxhJP0jvozxULqa7Fa3wA1JhcLh8kgAAMqHgAcKRTJ1AU65V/jPzhXnh71kT2VxWqt0CHggI+iIDLtDbbVHbmcVUe71Ym5ubpZD0TROc+z7aZd7ffv2bTK1Q0sPepPR+XSqh8EoE75Fj73xLfr6yb9X5/oW/cePHyW767EQyk+Px+NkCoey6nDZPXs24+/v7598XtIW++fPn+Xly7/Jd9+Jvv/xCrZ9XubDoUztAFj0j2EozV8mG4p61UP+vUrf1yKvX7+W9+/fJ1PFTv0WPQGPvRHw9ZN/r64Z8I+Pj8kUDmWt8E179levNge8+fHHW/nzn7+XP/3pBze97fNiAT/UWyvNLToeJeW46yr/XmXf1ywL99S2kCfgcTUEfP3k36trBry1NHGc+P2Nx7Otd7OtBW/+8Y//kb/+9T/3DvipzGXeDKRlZbkntOCz71X2fU1lwz21KeQJeFwNAV8/+ffqnBe6sRBP2W4oP43TpO9n/r0s+rxkg+iQgMe6/HuVfV9NvuW+qyV/asDzJTsAz8KCJx2KpnGaY9/Lb755L7///pdkCpeQhvm27vlzIOABoOas1ZkOL168kJa7EAQuIR/qlwx5Ah5esS6xXcO+yzE8PX8I4HibwvxSIU/AwyvZlsimYd/lGDjvClQZAQ8AgIcIeACoqaLTMvlh3+UYyndKi4AHnpi7crHx6B7X1z7qGtyZ5wCeSdFpmfyw73IM5TulRcADWZlysRa/+1xfu2gZuwDIxlpzuefYG+VqgUr59ddfjx7OgYAHMlblYtMiGnPN1TApQJMpE5uMh2ngutB+mr7zYVe6yePTe/PPsSw/a8/hpsP44MLWn3l8WFCuNl7/MT0IAHxHwANbtSQYBNLRJA4teJMysUO96QSBaE6ruQynTRnEEzmrx2/qCbBV2rp0MdH8zlk9XgrK1Ubu/vRgBLi2+FTT1Q4w7bnckIzHc7EBAQ9krMrFZlrniVamTGynKTJ1y9hCLRl0IteS3kf+OXR1bl3WMaD5ralt46HOe3pIkC9X6wp5Ac9kPkxOT4VxT9LBjjjtFKWnxDKlalGMa9Fjb1yLfhdtUWgo286nacU31vY+2+4rr/x7deo3hU+9tjZOd87Pi33XJK0gF9p4WjpWN/SO6IGq3tOaR9KcDKSpB632CQijjgz0nqH+GeifYXOgY/oAPXDVo16J9AA3tPuaFuTxugbWvZWw52km1etcoRt79nmoB+AtPQBuyqAZ6fynj7uG/Ht1ztoNxyhNwKMaCPh6IeD9c9GA16CdtzTUNWCbccJKYK10DfFOpLc6yw4ALNDd45b3hZmAjx8n3a8kTNbV0aBOj4nXA17XlozbbZR7DdnHXQMBn2MbG6qFgK8PAt4/5w34rkybcTDLYOJC3FrP7j8L9EwLXnTZqKmt7FADvrUK+K629Qe2rCs5q8taIut9Tb0vXVeQ+X7LroDXxV3LP/+4ayDggTMj4C+HgPfPtT4v2db9aapzeqtsAc+X7AAAZ9fqdKwxfQYt9wXXwL5cWuJwLyMCHgBwfnzL/dnRRY/Ky3Y54vzoovcLp7Qup2xd9AQ8Ko8d1uXk3ysCvvr4vFxO2QKeLnoAADxECx6VR4vkcmjB+4dTWpdFCx4orfnq2trumtfJeNbWa2AfeN3NrevKyS57yOOADSyMdg37LsdQvkYDAQ9kLK+tbeN2zeuCbwKvlYfNXUvbfvv7lV1UPhmPxzbbpxztUua1HPQ4ALVEwANb2JWxhhbiYSjdr7pJYGdKyCYlXFda7lrYScbHld/0Nlv6tdvtunXa+Nq63HLxcxWVgrUDhvS1TAtK0wJAFgEP7DDXpnJczjVtPz8t4bomGLjLdNplNNfFjwu0Jd7RZQJtg8flXlelYneVgk1fi9WTB56dnSpyQzKNUiHggbxct3xL29Cu1bxhL7bego8Fg6a2xl1iJy3uTR3qSQtem+92nLCrFOyu1wJc27J8K0qHb9Gj8q71LXorcuGqYyXTK9qCudi1si+57t34Fr1/zv15iYu/dGQ6nErH3UYFpWLjwjG2IV+7hOs15d8rvkUPlN08lFBbzc3OpsIZ2uK/2LWyL7lu4Fzsuyci03Bq3VBuetOpJ/qeroeAB3ZpEbDAToEmfGjfEbGJzaee+BhdDwEPADhaMBisQjvoJONJC34S93q1goG25u1AmXi/JgIeAHCyedhc/rrjfKVicQoCHgBwspaG+7J93lr/JQqeB9+iR+Vxbe3L4lv0fqF2w+WU7Vv0BDwqjx3W5eTfKwK++vi8XE7ZPi900QM42uvXr5OxdZvmA7geAh7ASfJhTrhXh7Uwdw37LsdwWmv9Egh4YE18be14VMfjsQPF66jTBT3SUCfcq8W6k3cN+y7HUL7TGAQ8kJGWiw27QxkeeI3ttDzssuRsGFeD89n79++TsfVwz84H8DwIeCCv1XJX3zJ2ic3QlXbVFnlS7tWVds2UdS1kPxMKJhLINCkx6698mBPuQDkQ8MCauQv1qDOQjpuOJC4EZ3/EV+eyMrF2bfp9r61dhwt+pKFOuNfcuU5N1ewU16UQ8MAabb3bJTWTFryVgm1ZQuf2NlYAZvO1teODhGG36w4U6nLBD8K9nsLhV6tTUcdc4MZ6wzKfr3DYjXu9bF7uvjXb7oPD7+BRec/7u15taTxjOddLy79Xp35TmN/BP7/zfl7sNJUe6Fox2MFAdELHrPVt16C376ToZyJfMlY/L25ag3yYLtccyCQ9qtblulEzLitry+h9A/2E2X9h1NFxDfaix5VA2T4vtOCBk1DOFTVmp6rmU4nmc5kuW9N2KqulUZ4rGatHwR39nKTT6XJBUz9D6ZdeTKCh3RGZdoeuFF18X/5UWcHj8AQBDwA4Shi1XMW4wURTe5r/OmmuZKw23qd26iqZzrJTYam5tuAtzOfu3Fh8X7ThVFn2cXiKLnpUHpfevJyydTnidNf6vNjPRqNBXC52Nz9OdZXt80LAo/LSHRaqgYB/Xlc7ILZvwh/zpbsKI+CBM7MdFqqFgH8+9Hhdzq6At4tBFf3aZNN8Ah440s3NjbD5X569zyne7+dHwF/OPgFvsmFeNC/Ft+iBI8Thvh4+OL/0IMrea7vl/QZWoZ7eXgoBDwDAFRS13E1R6/0c6KJHLa1a8HQbX1LagtcxHeIWPO/388p20eP8tnXRp/YNd87BAwdKwz0eJ+AvKd8lz3v9/DgHfzm7zsFnWcjvarlzDh44UhzuT0MI55WGut3yXgOxS3XLZxHwAAB4iIBH7cQtyXg8bsXTbQycxdnKvOp69lkXZWW3IuBRS+PxWB4fH+X+/j6Zg0vIdsvH333gYMo35y4XK3OdTi9rrwG+zXw6dZe3RTECHsBFcTDls1AD9v8kcEViLZs1nIddF/hW171rxWa6VjZW77Mgt2Iz6XS6XKSt8EzRmHBqVef0QMGOFPSPJ4/T8dBKylIMfie+RY9a+vTpk/sW8Zs3b7hs6oXxXpdL+i16VAM/kwMOROhcD+91uVjAo1oIeOAAhM718F4Dz4Nz8AAAeIiABwDAQwQ8AAAeIuABAPAQAQ8AgIcIeAAAPETAAwDgIQIeAAAPEfAAAHiIgAcAwEMEPAAAHiLgAQDwEAEPAICHCHgAADxEwAMA4CECHgAADxHwAAB4iIAHAMBDBDwAAB4i4AEA8BABDwCAhwh4AAA8RMADAOAhAh4AAA8R8AAAeIiABwDAQwQ8AAAeIuABAPAQAQ8AgIcIeAAAPETAAwDgIQIeAAAPEfAAAHiIgAcAwEMEPAAAHiLgAQDwEAEPAICHCHgAADxEwAMA4CECHgAADxHwAAB4iIAHAMBDBDwAAB4i4AEA8BABDwCAhwh4AAA8RMADAOAhAh4AAA8R8AAAeIiABwDAQwQ8AAAeIuABAPAQAQ8AgIcIeAAAPETAAwDgIQIeAAAPEfAAAHiIgAcAwEMEPAAAHiLgAQDwEAEPAICHCHgAADxEwAMA4CECHgAADxHwAAB4iIAHAMBDBDwAAB4i4AEA8BABDwCAhwh4AAA8RMADAOAhAh4AAA8R8AAAeIiABwDAQwQ8AAAeIuABAPAQAQ8AgIcIeAAAPETAAwDgIQIeAAAPEfAAAHiIgAcAwEMEPAAAHiLgAQDwEAEPAICHCHgAADxEwAMA4CECHgAADxHwAAB4iIAHAMBDBDwAAN4R+f8HBHTeOpS3/wAAAABJRU5ErkJggg==;clipPath=inset(10.08% 2% 19.76% 3.33%);" vertex="1" parent="1">
          <mxGeometry y="-370" width="504" height="308.7887323943662" as="geometry" />
        </mxCell>
        <mxCell id="AJNaNlnTPfOoi5V9MQdz-8" value="&lt;p style=&quot;text-align:justify;text-indent:-18.0pt;&lt;br/&gt;line-height:150%;mso-list:l0 level1 lfo1&quot; class=&quot;MsoListParagraph&quot;&gt;&lt;span style=&quot;font-family: Arial, sans-serif; border: 1pt none windowtext; padding: 0cm;&quot; lang=&quot;ES-TRAD&quot;&gt;&amp;nbsp; &amp;nbsp; &amp;nbsp; &amp;nbsp;Promedio de vuelos&lt;/span&gt;&lt;/p&gt;" style="rounded=1;whiteSpace=wrap;html=1;fillColor=#dae8fc;gradientColor=#7ea6e0;strokeColor=#6c8ebf;" vertex="1" parent="1">
          <mxGeometry x="580" y="-30" width="130" height="35" as="geometry" />
        </mxCell>
        <mxCell id="AJNaNlnTPfOoi5V9MQdz-9" value="&lt;font face=&quot;Arial, sans-serif&quot;&gt;Cantidad de vuelos cancelados&lt;/font&gt;" style="rounded=1;whiteSpace=wrap;html=1;fillColor=#dae8fc;gradientColor=#7ea6e0;strokeColor=#6c8ebf;" vertex="1" parent="1">
          <mxGeometry x="580" y="25" width="130" height="30" as="geometry" />
        </mxCell>
        <mxCell id="AJNaNlnTPfOoi5V9MQdz-10" value="&lt;font face=&quot;Arial, sans-serif&quot;&gt;Destinos solicitados&lt;/font&gt;" style="rounded=1;whiteSpace=wrap;html=1;fillColor=#dae8fc;gradientColor=#7ea6e0;strokeColor=#6c8ebf;" vertex="1" parent="1">
          <mxGeometry x="580" y="75" width="130" height="30" as="geometry" />
        </mxCell>
        <mxCell id="AJNaNlnTPfOoi5V9MQdz-11" value="Porcentajes de asientos libres" style="rounded=1;whiteSpace=wrap;html=1;fillColor=#dae8fc;gradientColor=#7ea6e0;strokeColor=#6c8ebf;" vertex="1" parent="1">
          <mxGeometry x="580" y="125" width="130" height="30" as="geometry" />
        </mxCell>
        <mxCell id="AJNaNlnTPfOoi5V9MQdz-13" value="Pasajero" style="rounded=1;whiteSpace=wrap;html=1;fillColor=#f5f5f5;gradientColor=#b3b3b3;strokeColor=#666666;" vertex="1" parent="1">
          <mxGeometry x="260" width="80" height="30" as="geometry" />
        </mxCell>
        <mxCell id="AJNaNlnTPfOoi5V9MQdz-14" value="Ultimos 6 meses" style="rounded=1;whiteSpace=wrap;html=1;fillColor=#f5f5f5;gradientColor=#b3b3b3;strokeColor=#666666;" vertex="1" parent="1">
          <mxGeometry x="260" y="40" width="80" height="30" as="geometry" />
        </mxCell>
        <mxCell id="AJNaNlnTPfOoi5V9MQdz-15" value="Destino nacionales" style="rounded=1;whiteSpace=wrap;html=1;fillColor=#f5f5f5;gradientColor=#b3b3b3;strokeColor=#666666;" vertex="1" parent="1">
          <mxGeometry x="260" y="80" width="80" height="30" as="geometry" />
        </mxCell>
        <mxCell id="AJNaNlnTPfOoi5V9MQdz-16" value="Destino internacionales" style="rounded=1;whiteSpace=wrap;html=1;fillColor=#f5f5f5;gradientColor=#b3b3b3;strokeColor=#666666;" vertex="1" parent="1">
          <mxGeometry x="260" y="120" width="80" height="30" as="geometry" />
        </mxCell>
        <mxCell id="AJNaNlnTPfOoi5V9MQdz-17" value="Cuidad" style="rounded=1;whiteSpace=wrap;html=1;fillColor=#f5f5f5;gradientColor=#b3b3b3;strokeColor=#666666;" vertex="1" parent="1">
          <mxGeometry x="260" y="165" width="80" height="30" as="geometry" />
        </mxCell>
        <mxCell id="AJNaNlnTPfOoi5V9MQdz-19" value="&lt;b&gt;&lt;font style=&quot;font-size: 16px;&quot;&gt;Vuelo&lt;/font&gt;&lt;/b&gt;" style="ellipse;whiteSpace=wrap;html=1;fillColor=#f8cecc;gradientColor=#ea6b66;strokeColor=#b85450;" vertex="1" parent="1">
          <mxGeometry x="400" y="105" width="100" height="60" as="geometry" />
        </mxCell>
        <mxCell id="AJNaNlnTPfOoi5V9MQdz-20" value="" style="endArrow=none;html=1;rounded=0;exitX=1;exitY=0.75;exitDx=0;exitDy=0;entryX=0;entryY=0;entryDx=0;entryDy=0;" edge="1" parent="1" source="AJNaNlnTPfOoi5V9MQdz-13" target="AJNaNlnTPfOoi5V9MQdz-19">
          <mxGeometry width="50" height="50" relative="1" as="geometry">
            <mxPoint x="560" y="145" as="sourcePoint" />
            <mxPoint x="610" y="95" as="targetPoint" />
          </mxGeometry>
        </mxCell>
        <mxCell id="AJNaNlnTPfOoi5V9MQdz-21" value="" style="endArrow=none;html=1;rounded=0;exitX=1;exitY=0.5;exitDx=0;exitDy=0;entryX=0.08;entryY=0.2;entryDx=0;entryDy=0;entryPerimeter=0;" edge="1" parent="1" source="AJNaNlnTPfOoi5V9MQdz-14" target="AJNaNlnTPfOoi5V9MQdz-19">
          <mxGeometry width="50" height="50" relative="1" as="geometry">
            <mxPoint x="290" y="18" as="sourcePoint" />
            <mxPoint x="385" y="119" as="targetPoint" />
          </mxGeometry>
        </mxCell>
        <mxCell id="AJNaNlnTPfOoi5V9MQdz-22" value="" style="endArrow=none;html=1;rounded=0;exitX=1;exitY=0.25;exitDx=0;exitDy=0;entryX=0;entryY=0.367;entryDx=0;entryDy=0;entryPerimeter=0;" edge="1" parent="1" source="AJNaNlnTPfOoi5V9MQdz-15" target="AJNaNlnTPfOoi5V9MQdz-19">
          <mxGeometry width="50" height="50" relative="1" as="geometry">
            <mxPoint x="290" y="50" as="sourcePoint" />
            <mxPoint x="418" y="127" as="targetPoint" />
          </mxGeometry>
        </mxCell>
        <mxCell id="AJNaNlnTPfOoi5V9MQdz-23" value="" style="endArrow=none;html=1;rounded=0;exitX=1;exitY=0.5;exitDx=0;exitDy=0;" edge="1" parent="1" source="AJNaNlnTPfOoi5V9MQdz-16">
          <mxGeometry width="50" height="50" relative="1" as="geometry">
            <mxPoint x="290" y="83" as="sourcePoint" />
            <mxPoint x="400" y="135" as="targetPoint" />
          </mxGeometry>
        </mxCell>
        <mxCell id="AJNaNlnTPfOoi5V9MQdz-24" value="" style="endArrow=none;html=1;rounded=0;exitX=1;exitY=0.5;exitDx=0;exitDy=0;entryX=0.07;entryY=0.817;entryDx=0;entryDy=0;entryPerimeter=0;" edge="1" parent="1" source="AJNaNlnTPfOoi5V9MQdz-17" target="AJNaNlnTPfOoi5V9MQdz-19">
          <mxGeometry width="50" height="50" relative="1" as="geometry">
            <mxPoint x="290" y="170" as="sourcePoint" />
            <mxPoint x="410" y="155" as="targetPoint" />
          </mxGeometry>
        </mxCell>
        <mxCell id="AJNaNlnTPfOoi5V9MQdz-26" value="" style="endArrow=classic;html=1;rounded=0;exitX=0.94;exitY=0.217;exitDx=0;exitDy=0;exitPerimeter=0;entryX=0;entryY=0.5;entryDx=0;entryDy=0;" edge="1" parent="1" source="AJNaNlnTPfOoi5V9MQdz-19" target="AJNaNlnTPfOoi5V9MQdz-8">
          <mxGeometry width="50" height="50" relative="1" as="geometry">
            <mxPoint x="560" y="145" as="sourcePoint" />
            <mxPoint x="610" y="95" as="targetPoint" />
          </mxGeometry>
        </mxCell>
        <mxCell id="AJNaNlnTPfOoi5V9MQdz-27" value="" style="endArrow=classic;html=1;rounded=0;exitX=0.96;exitY=0.383;exitDx=0;exitDy=0;exitPerimeter=0;entryX=0;entryY=0.5;entryDx=0;entryDy=0;" edge="1" parent="1" source="AJNaNlnTPfOoi5V9MQdz-19" target="AJNaNlnTPfOoi5V9MQdz-9">
          <mxGeometry width="50" height="50" relative="1" as="geometry">
            <mxPoint x="504" y="128" as="sourcePoint" />
            <mxPoint x="650" y="18" as="targetPoint" />
          </mxGeometry>
        </mxCell>
        <mxCell id="AJNaNlnTPfOoi5V9MQdz-28" value="" style="endArrow=classic;html=1;rounded=0;exitX=1;exitY=0.5;exitDx=0;exitDy=0;entryX=0;entryY=0.5;entryDx=0;entryDy=0;" edge="1" parent="1" source="AJNaNlnTPfOoi5V9MQdz-19" target="AJNaNlnTPfOoi5V9MQdz-10">
          <mxGeometry width="50" height="50" relative="1" as="geometry">
            <mxPoint x="506" y="138" as="sourcePoint" />
            <mxPoint x="650" y="70" as="targetPoint" />
          </mxGeometry>
        </mxCell>
        <mxCell id="AJNaNlnTPfOoi5V9MQdz-29" value="" style="endArrow=classic;html=1;rounded=0;exitX=1;exitY=0.683;exitDx=0;exitDy=0;entryX=0;entryY=0.5;entryDx=0;entryDy=0;exitPerimeter=0;" edge="1" parent="1" source="AJNaNlnTPfOoi5V9MQdz-19" target="AJNaNlnTPfOoi5V9MQdz-11">
          <mxGeometry width="50" height="50" relative="1" as="geometry">
            <mxPoint x="510" y="145" as="sourcePoint" />
            <mxPoint x="650" y="120" as="targetPoint" />
          </mxGeometry>
        </mxCell>
        <mxCell id="AJNaNlnTPfOoi5V9MQdz-31" value="Tiempo" style="rounded=1;whiteSpace=wrap;html=1;fillColor=#f5f5f5;gradientColor=#b3b3b3;strokeColor=#666666;" vertex="1" parent="1">
          <mxGeometry x="255" y="210" width="90" height="40" as="geometry" />
        </mxCell>
        <mxCell id="AJNaNlnTPfOoi5V9MQdz-33" value="Promedio de retraso&amp;nbsp;&lt;div&gt;vuelos de llegadas&lt;/div&gt;" style="rounded=1;whiteSpace=wrap;html=1;arcSize=23;align=center;fillColor=#dae8fc;gradientColor=#7ea6e0;strokeColor=#6c8ebf;" vertex="1" parent="1">
          <mxGeometry x="580" y="170" width="130" height="40" as="geometry" />
        </mxCell>
        <mxCell id="AJNaNlnTPfOoi5V9MQdz-34" value="" style="endArrow=none;html=1;rounded=0;entryX=0.24;entryY=0.867;entryDx=0;entryDy=0;exitX=1;exitY=0.75;exitDx=0;exitDy=0;entryPerimeter=0;" edge="1" parent="1" source="AJNaNlnTPfOoi5V9MQdz-31" target="AJNaNlnTPfOoi5V9MQdz-19">
          <mxGeometry width="50" height="50" relative="1" as="geometry">
            <mxPoint x="318" y="260" as="sourcePoint" />
            <mxPoint x="425" y="166" as="targetPoint" />
          </mxGeometry>
        </mxCell>
        <mxCell id="AJNaNlnTPfOoi5V9MQdz-36" value="" style="endArrow=classic;html=1;rounded=0;exitX=1;exitY=1;exitDx=0;exitDy=0;entryX=0;entryY=0.25;entryDx=0;entryDy=0;" edge="1" parent="1" source="AJNaNlnTPfOoi5V9MQdz-19" target="AJNaNlnTPfOoi5V9MQdz-33">
          <mxGeometry width="50" height="50" relative="1" as="geometry">
            <mxPoint x="503" y="163" as="sourcePoint" />
            <mxPoint x="610" y="290" as="targetPoint" />
          </mxGeometry>
        </mxCell>
        <mxCell id="AJNaNlnTPfOoi5V9MQdz-66" value="" style="html=1;rounded=1;absoluteArcSize=1;arcSize=10;whiteSpace=wrap;fillColor=none;strokeColor=#5fd80e;strokeWidth=3;" vertex="1" parent="1">
          <mxGeometry x="350" y="-490" width="50" height="20" as="geometry" />
        </mxCell>
        <mxCell id="AJNaNlnTPfOoi5V9MQdz-67" value="" style="endArrow=open;html=1;rounded=0;align=center;verticalAlign=top;endFill=0;labelBackgroundColor=none;endSize=6;strokeColor=#18e60a;strokeWidth=3;entryX=0.5;entryY=0;entryDx=0;entryDy=0;exitX=0.5;exitY=1;exitDx=0;exitDy=0;" edge="1" parent="1" source="AJNaNlnTPfOoi5V9MQdz-66" target="AJNaNlnTPfOoi5V9MQdz-13">
          <mxGeometry relative="1" as="geometry">
            <mxPoint x="360" y="-470" as="sourcePoint" />
            <mxPoint x="480" y="-130" as="targetPoint" />
            <Array as="points">
              <mxPoint x="360" y="-130" />
            </Array>
          </mxGeometry>
        </mxCell>
        <mxCell id="AJNaNlnTPfOoi5V9MQdz-68" value="" style="html=1;rounded=1;absoluteArcSize=1;arcSize=10;whiteSpace=wrap;fillColor=none;strokeColor=#5fd80e;strokeWidth=3;" vertex="1" parent="1">
          <mxGeometry x="160" y="-210" width="50" height="20" as="geometry" />
        </mxCell>
        <mxCell id="AJNaNlnTPfOoi5V9MQdz-69" value="" style="endArrow=open;html=1;rounded=0;align=center;verticalAlign=top;endFill=0;labelBackgroundColor=none;endSize=6;strokeColor=#18e60a;strokeWidth=3;entryX=0;entryY=0.5;entryDx=0;entryDy=0;exitX=0.25;exitY=1;exitDx=0;exitDy=0;" edge="1" parent="1" source="AJNaNlnTPfOoi5V9MQdz-66" target="AJNaNlnTPfOoi5V9MQdz-14">
          <mxGeometry relative="1" as="geometry">
            <mxPoint x="385" y="-460" as="sourcePoint" />
            <mxPoint x="310" y="10" as="targetPoint" />
            <Array as="points">
              <mxPoint x="250" y="20" />
            </Array>
          </mxGeometry>
        </mxCell>
        <mxCell id="AJNaNlnTPfOoi5V9MQdz-70" value="" style="endArrow=open;html=1;rounded=0;align=center;verticalAlign=top;endFill=0;labelBackgroundColor=none;endSize=6;strokeColor=#18e60a;strokeWidth=3;entryX=0;entryY=0.75;entryDx=0;entryDy=0;exitX=1;exitY=0.5;exitDx=0;exitDy=0;" edge="1" parent="1" source="AJNaNlnTPfOoi5V9MQdz-68" target="AJNaNlnTPfOoi5V9MQdz-14">
          <mxGeometry relative="1" as="geometry">
            <mxPoint x="210" y="-270" as="sourcePoint" />
            <mxPoint x="107" y="255" as="targetPoint" />
            <Array as="points">
              <mxPoint x="270" y="-200" />
              <mxPoint x="230" y="50" />
            </Array>
          </mxGeometry>
        </mxCell>
        <mxCell id="AJNaNlnTPfOoi5V9MQdz-71" value="" style="html=1;rounded=1;absoluteArcSize=1;arcSize=10;whiteSpace=wrap;fillColor=none;strokeColor=#5fd80e;strokeWidth=3;" vertex="1" parent="1">
          <mxGeometry x="220" y="-370" width="50" height="20" as="geometry" />
        </mxCell>
        <mxCell id="AJNaNlnTPfOoi5V9MQdz-72" value="" style="endArrow=open;html=1;rounded=0;align=center;verticalAlign=top;endFill=0;labelBackgroundColor=none;endSize=6;strokeColor=#18e60a;strokeWidth=3;entryX=0;entryY=0.75;entryDx=0;entryDy=0;exitX=0.5;exitY=1;exitDx=0;exitDy=0;" edge="1" parent="1" source="AJNaNlnTPfOoi5V9MQdz-71" target="AJNaNlnTPfOoi5V9MQdz-15">
          <mxGeometry relative="1" as="geometry">
            <mxPoint x="183" y="-180" as="sourcePoint" />
            <mxPoint x="270" y="73" as="targetPoint" />
            <Array as="points">
              <mxPoint x="240" y="-130" />
              <mxPoint x="210" y="103" />
            </Array>
          </mxGeometry>
        </mxCell>
        <mxCell id="AJNaNlnTPfOoi5V9MQdz-73" value="" style="endArrow=open;html=1;rounded=0;align=center;verticalAlign=top;endFill=0;labelBackgroundColor=none;endSize=6;strokeColor=#18e60a;strokeWidth=3;exitX=0.5;exitY=1;exitDx=0;exitDy=0;" edge="1" parent="1" source="AJNaNlnTPfOoi5V9MQdz-68">
          <mxGeometry relative="1" as="geometry">
            <mxPoint x="183" y="-180" as="sourcePoint" />
            <mxPoint x="250" y="100" as="targetPoint" />
            <Array as="points">
              <mxPoint x="190" y="80" />
            </Array>
          </mxGeometry>
        </mxCell>
        <mxCell id="AJNaNlnTPfOoi5V9MQdz-74" value="" style="endArrow=open;html=1;rounded=0;align=center;verticalAlign=top;endFill=0;labelBackgroundColor=none;endSize=6;strokeColor=#18e60a;strokeWidth=3;exitX=0.5;exitY=1;exitDx=0;exitDy=0;entryX=0;entryY=0.75;entryDx=0;entryDy=0;" edge="1" parent="1" target="AJNaNlnTPfOoi5V9MQdz-16">
          <mxGeometry relative="1" as="geometry">
            <mxPoint x="170" y="-190" as="sourcePoint" />
            <mxPoint x="235" y="100" as="targetPoint" />
            <Array as="points">
              <mxPoint x="170" y="110" />
            </Array>
          </mxGeometry>
        </mxCell>
        <mxCell id="AJNaNlnTPfOoi5V9MQdz-75" value="" style="endArrow=open;html=1;rounded=0;align=center;verticalAlign=top;endFill=0;labelBackgroundColor=none;endSize=6;strokeColor=#18e60a;strokeWidth=3;entryX=0;entryY=0.75;entryDx=0;entryDy=0;" edge="1" parent="1" target="AJNaNlnTPfOoi5V9MQdz-16">
          <mxGeometry relative="1" as="geometry">
            <mxPoint x="240" y="-340" as="sourcePoint" />
            <mxPoint x="270" y="113" as="targetPoint" />
            <Array as="points">
              <mxPoint x="130" y="-220" />
              <mxPoint x="140" y="135" />
            </Array>
          </mxGeometry>
        </mxCell>
        <mxCell id="AJNaNlnTPfOoi5V9MQdz-76" value="" style="html=1;rounded=1;absoluteArcSize=1;arcSize=10;whiteSpace=wrap;fillColor=none;strokeColor=#5fd80e;strokeWidth=3;" vertex="1" parent="1">
          <mxGeometry x="450" y="-310" width="50" height="20" as="geometry" />
        </mxCell>
        <mxCell id="AJNaNlnTPfOoi5V9MQdz-77" value="" style="endArrow=open;html=1;rounded=0;align=center;verticalAlign=top;endFill=0;labelBackgroundColor=none;endSize=6;strokeColor=#18e60a;strokeWidth=3;exitX=0;exitY=0.5;exitDx=0;exitDy=0;entryX=0;entryY=0.5;entryDx=0;entryDy=0;" edge="1" parent="1" source="AJNaNlnTPfOoi5V9MQdz-76" target="AJNaNlnTPfOoi5V9MQdz-17">
          <mxGeometry relative="1" as="geometry">
            <mxPoint x="385" y="-460" as="sourcePoint" />
            <mxPoint x="120" y="190" as="targetPoint" />
            <Array as="points">
              <mxPoint x="110" y="-290" />
              <mxPoint x="110" y="160" />
            </Array>
          </mxGeometry>
        </mxCell>
        <mxCell id="AJNaNlnTPfOoi5V9MQdz-78" value="" style="html=1;rounded=1;absoluteArcSize=1;arcSize=10;whiteSpace=wrap;fillColor=none;strokeColor=#5fd80e;strokeWidth=3;" vertex="1" parent="1">
          <mxGeometry x="180" y="-170" width="50" height="20" as="geometry" />
        </mxCell>
        <mxCell id="AJNaNlnTPfOoi5V9MQdz-79" value="" style="endArrow=open;html=1;rounded=0;align=center;verticalAlign=top;endFill=0;labelBackgroundColor=none;endSize=6;strokeColor=#18e60a;strokeWidth=3;exitX=0.5;exitY=1;exitDx=0;exitDy=0;entryX=0;entryY=0.5;entryDx=0;entryDy=0;" edge="1" parent="1" target="AJNaNlnTPfOoi5V9MQdz-31">
          <mxGeometry relative="1" as="geometry">
            <mxPoint x="205" y="-150" as="sourcePoint" />
            <mxPoint x="270" y="140" as="targetPoint" />
            <Array as="points">
              <mxPoint x="180" y="220" />
            </Array>
          </mxGeometry>
        </mxCell>
        <mxCell id="AJNaNlnTPfOoi5V9MQdz-80" value="" style="html=1;rounded=1;absoluteArcSize=1;arcSize=10;whiteSpace=wrap;fillColor=none;strokeColor=#5f0ed8;strokeWidth=3;" vertex="1" parent="1">
          <mxGeometry x="10" y="-225.61" width="90" height="20" as="geometry" />
        </mxCell>
        <mxCell id="AJNaNlnTPfOoi5V9MQdz-81" value="" style="endArrow=open;html=1;rounded=0;align=center;verticalAlign=top;endFill=0;labelBackgroundColor=none;endSize=6;strokeColor=#830ae6;strokeWidth=3;exitX=0.75;exitY=1;exitDx=0;exitDy=0;entryX=0.308;entryY=-0.029;entryDx=0;entryDy=0;entryPerimeter=0;" edge="1" parent="1" source="AJNaNlnTPfOoi5V9MQdz-66" target="AJNaNlnTPfOoi5V9MQdz-8">
          <mxGeometry relative="1" as="geometry">
            <mxPoint x="269" y="-640" as="sourcePoint" />
            <mxPoint x="504" y="-92" as="targetPoint" />
            <Array as="points">
              <mxPoint x="590" y="-80" />
            </Array>
          </mxGeometry>
        </mxCell>
        <mxCell id="AJNaNlnTPfOoi5V9MQdz-83" value="" style="endArrow=open;html=1;rounded=0;align=center;verticalAlign=top;endFill=0;labelBackgroundColor=none;endSize=6;strokeColor=#830ae6;strokeWidth=3;exitX=0.5;exitY=1;exitDx=0;exitDy=0;entryX=1;entryY=0.5;entryDx=0;entryDy=0;" edge="1" parent="1" source="AJNaNlnTPfOoi5V9MQdz-80" target="AJNaNlnTPfOoi5V9MQdz-9">
          <mxGeometry relative="1" as="geometry">
            <mxPoint x="398" y="-460" as="sourcePoint" />
            <mxPoint x="630" y="-21" as="targetPoint" />
            <Array as="points">
              <mxPoint x="90" y="280" />
              <mxPoint x="740" y="280" />
              <mxPoint x="740" y="40" />
            </Array>
          </mxGeometry>
        </mxCell>
        <mxCell id="AJNaNlnTPfOoi5V9MQdz-84" value="" style="endArrow=open;html=1;rounded=0;align=center;verticalAlign=top;endFill=0;labelBackgroundColor=none;endSize=6;strokeColor=#830ae6;strokeWidth=3;exitX=0.25;exitY=1;exitDx=0;exitDy=0;entryX=1;entryY=0.5;entryDx=0;entryDy=0;" edge="1" parent="1" source="AJNaNlnTPfOoi5V9MQdz-68" target="AJNaNlnTPfOoi5V9MQdz-10">
          <mxGeometry relative="1" as="geometry">
            <mxPoint x="65" y="-196" as="sourcePoint" />
            <mxPoint x="720" y="50" as="targetPoint" />
            <Array as="points">
              <mxPoint x="185" y="310" />
              <mxPoint x="750" y="310" />
              <mxPoint x="750" y="90" />
            </Array>
          </mxGeometry>
        </mxCell>
        <mxCell id="AJNaNlnTPfOoi5V9MQdz-86" value="" style="endArrow=open;html=1;rounded=0;align=center;verticalAlign=top;endFill=0;labelBackgroundColor=none;endSize=6;strokeColor=#830ae6;strokeWidth=3;exitX=0.75;exitY=1;exitDx=0;exitDy=0;entryX=1;entryY=0.25;entryDx=0;entryDy=0;" edge="1" parent="1" source="AJNaNlnTPfOoi5V9MQdz-71" target="AJNaNlnTPfOoi5V9MQdz-10">
          <mxGeometry relative="1" as="geometry">
            <mxPoint x="398" y="-460" as="sourcePoint" />
            <mxPoint x="630" y="-21" as="targetPoint" />
            <Array as="points">
              <mxPoint x="750" y="-20" />
            </Array>
          </mxGeometry>
        </mxCell>
        <mxCell id="AJNaNlnTPfOoi5V9MQdz-87" value="" style="html=1;rounded=1;absoluteArcSize=1;arcSize=10;whiteSpace=wrap;fillColor=none;strokeColor=#5f0ed8;strokeWidth=3;" vertex="1" parent="1">
          <mxGeometry x="690" y="-420" width="50" height="20" as="geometry" />
        </mxCell>
        <mxCell id="AJNaNlnTPfOoi5V9MQdz-88" value="" style="endArrow=open;html=1;rounded=0;align=center;verticalAlign=top;endFill=0;labelBackgroundColor=none;endSize=6;strokeColor=#830ae6;strokeWidth=3;exitX=0.5;exitY=1;exitDx=0;exitDy=0;entryX=1;entryY=0.5;entryDx=0;entryDy=0;" edge="1" parent="1" source="AJNaNlnTPfOoi5V9MQdz-87" target="AJNaNlnTPfOoi5V9MQdz-11">
          <mxGeometry relative="1" as="geometry">
            <mxPoint x="398" y="-460" as="sourcePoint" />
            <mxPoint x="630" y="-21" as="targetPoint" />
            <Array as="points">
              <mxPoint x="800" y="10" />
            </Array>
          </mxGeometry>
        </mxCell>
        <mxCell id="AJNaNlnTPfOoi5V9MQdz-90" value="" style="endArrow=open;html=1;rounded=0;align=center;verticalAlign=top;endFill=0;labelBackgroundColor=none;endSize=6;strokeColor=#830ae6;strokeWidth=3;exitX=0.25;exitY=1;exitDx=0;exitDy=0;entryX=1;entryY=0.5;entryDx=0;entryDy=0;" edge="1" parent="1" source="AJNaNlnTPfOoi5V9MQdz-78" target="AJNaNlnTPfOoi5V9MQdz-33">
          <mxGeometry relative="1" as="geometry">
            <mxPoint x="65" y="-196" as="sourcePoint" />
            <mxPoint x="720" y="50" as="targetPoint" />
            <Array as="points">
              <mxPoint x="200" y="330" />
              <mxPoint x="760" y="320" />
              <mxPoint x="760" y="190" />
            </Array>
          </mxGeometry>
        </mxCell>
      </root>
    </mxGraphModel>
  </diagram>
</mxfile>
